# ProBuilder 5.1.0
# https://unity3d.com/unity/features/worldbuilding/probuilder
# 22/08/2023 1:41:53 PM

mtllib ./PZdoor.mtl
o PZdoor

g PZwall
v -25 -11 0.5
v -25 -11 -0.5
v -25 14 0.5
v -25 14 -0.5
v 25 -11 -0.5
v 25 -11 0.5
v 25 14 -0.5
v 25 14 0.5
v -3 14 -0.5
v 3 -2 -0.5
v 3 14 -0.5
v -3 -2 -0.5
v 3 -11 -0.5
v 3 -11 0.5
v 3 -2 0.5
v -3 -2 0.5
v -3 -11 -0.5
v -3 -11 0.5
v -3 14 0.5
v 3 14 0.5

vt 0.5 -11
vt -0.5 -11
vt 0.5 14
vt -0.5 14
vt 3 14
vt -3 -2
vt -3 14
vt 3 -2
vt -0.5 -2
vt 0.5 -2
vt 3 -0.5
vt -3 -0.5
vt 3 0.5
vt -3 0.5
vt 25 0.5
vt 25 -0.5
vt -25 -0.5
vt -25 0.5
vt 25 14
vt 3 -11
vt 25 -11
vt -3 -11
vt -25 -11
vt -25 14

vn -1 0 0
vn 1 0 0
vn 0 0 -1
vn 0 -1 0
vn 0 1 0
vn 0 0 1

usemtl ProBuilder_Default_URP
f 3/3/1 2/2/1 1/1/1
f 3/3/1 4/4/1 2/2/1
f 7/3/2 6/2/2 5/1/2
f 7/3/2 8/4/2 6/2/2
f 11/7/3 10/6/3 9/5/3
f 10/6/3 12/8/3 9/5/3
f 14/1/1 10/9/1 13/2/1
f 14/1/1 15/10/1 10/9/1
f 15/13/4 12/12/4 10/11/4
f 15/13/4 16/14/4 12/12/4
f 16/9/2 17/1/2 12/10/2
f 16/9/2 18/2/2 17/1/2
f 19/13/5 4/16/5 3/15/5
f 19/13/5 9/11/5 4/16/5
f 11/12/5 9/11/5 19/13/5
f 20/14/5 11/12/5 19/13/5
f 11/12/5 20/14/5 7/17/5
f 20/14/5 8/18/5 7/17/5
f 19/7/6 16/6/6 15/8/6
f 19/7/6 15/8/6 20/5/6
f 9/5/3 12/8/3 4/19/3
f 12/8/3 17/20/3 4/19/3
f 17/20/3 2/21/3 4/19/3
f 1/18/4 2/17/4 18/14/4
f 2/17/4 17/12/4 18/14/4
f 3/24/6 1/23/6 18/22/6
f 3/24/6 18/22/6 16/6/6
f 3/24/6 16/6/6 19/7/6
f 10/6/3 11/7/3 7/24/3
f 13/22/3 10/6/3 7/24/3
f 7/24/3 5/23/3 13/22/3
f 14/20/6 6/21/6 8/19/6
f 8/19/6 15/8/6 14/20/6
f 8/19/6 20/5/6 15/8/6
f 14/13/4 13/11/4 6/15/4
f 13/11/4 5/16/4 6/15/4

